:SAMPLES-PER-SECOND 30
:FULLY-SPECIFIED
:DEGREES
223
root  -7.252889168 36.88911078 0.6984644518 5.863998413 -36.05599976 -5.190002441
lowerback  14.77060032 -0.03435060009 -3.113250017
upperback  4.106440067 -0.6355209947 -1.183509946
thorax  -3.911809921 -0.3323189914 0.6327720284
lowerneck  -2.209899902 3.314029932 -7.569220066
upperneck  6.73112011 4.412089825 5.515789986
head  2.251780033 2.152729988 3.253350019
lclavicle  0 -9.442270133e-015 7.951389973e-016
lhumerus  -2.763590097 -9.447839737 74.84100342
lradius  2.815029646e-031 -2.131772063e-031 142.8639984
lwrist  -1.412450015e-030 -1.765562519e-031 9.476189613
lhand  -1.496451383e-031 -27.76390076 20.11240005
lfingers  90 7.125020027 -90
lthumb  89.89689403 5.08795885 91.16245106
rclavicle  0 -9.442270133e-015 7.951389973e-016
rhumerus  -25.31940079 23.79800034 -80.08609772
rradius  -1.683932382e-031 3.10374222e-031 118.4820023
rwrist  7.062250077e-031 -3.531125038e-031 -0.4038450122
rhand  -7.920061211e-032 -33.2840004 9.303460121
rfingers  -90 -7.125020027 -90
rthumb  -92.93752616 -24.25625642 -97.11982154
rfemur  -14.28619957 25.38960075 5.906129837
rtibia  -0 0 48.2010994
rfoot  -0 -29.09690094 -12.2439003
rtoes  5.373923086 19.29304026 -105.8922705
lfemur  -34.3832016 8.192620277 2.113470078
ltibia  -0 0 83.62799835
lfoot  -0 0.9136440158 -16.7052002
ltoes  -4.250644065 -19.5611806 -102.515957
224
root  -7.3074889 36.66866633 0.6277466853 6.138000488 -36.67900085 -5.934005737
lowerback  14.59020042 -0.377620995 -2.336469889
upperback  4.115409851 -0.9563509822 -0.9809889793
thorax  -3.804709911 -0.4947319925 0.4615989923
lowerneck  -2.439749956 3.668879986 -7.149960041
upperneck  6.688230038 4.925449848 4.842619896
head  2.263489962 2.40286994 2.957520008
lclavicle  0 -9.442270133e-015 7.951389973e-016
lhumerus  -3.736759901 -8.867890358 75.32520294
lradius  2.826854818e-031 -2.116066131e-031 143.1829987
lwrist  -7.062250077e-031 -3.531125038e-031 9.74477005
lhand  -1.496451383e-031 -27.76390076 20.11240005
lfingers  90 7.125020027 -90
lthumb  89.89689403 5.08795885 91.16245106
rclavicle  0 -9.442270133e-015 7.951389973e-016
rhumerus  -26.32649994 24.69910049 -81.26529694
rradius  -1.766576358e-031 3.057458423e-031 120.0189972
rwrist  1.059337512e-030 -3.531125038e-031 0.06406150013
rhand  -7.920061211e-032 -33.2840004 9.303460121
rfingers  -90 -7.125020027 -90
rthumb  -92.93752616 -24.25625642 -97.11982154
rfemur  -14.90229988 24.77190018 6.422770023
rtibia  -0 0 49.13740158
rfoot  -0 -29.88129997 -12.09519958
rtoes  5.373923086 19.29304026 -105.8922705
lfemur  -33.23149872 8.806850433 2.215229988
ltibia  -0 0 83.46759796
lfoot  -0 0.7517089844 -17.90839958
ltoes  -4.250644065 -19.5611806 -102.515957
225
root  -7.354022199 36.48622167 0.5842555696 6.330993652 -37.36300659 -6.507995605
lowerback  14.33619976 -0.6069729924 -1.70065999
upperback  4.17979002 -1.151960015 -0.815500021
thorax  -3.60484004 -0.5960450172 0.3059870005
lowerneck  -2.72758007 3.941600084 -6.76816988
upperneck  6.641880035 5.326010227 4.292039871
head  2.294470072 2.599280119 2.715539932
lclavicle  0 -9.442270133e-015 7.951389973e-016
lhumerus  -4.658259869 -8.501190186 76.06369781
lradius  2.838152658e-031 -2.100888747e-031 143.4900055
lwrist  -7.062250077e-031 -0 9.99518013
lhand  -1.496451383e-031 -27.76390076 20.11240005
lfingers  90 7.125020027 -90
lthumb  89.89689403 5.08795885 91.16245106
rclavicle  0 -9.442270133e-015 7.951389973e-016
rhumerus  -27.1371994 25.38999939 -82.38330078
rradius  -1.843693808e-031 3.011583832e-031 121.4749985
rwrist  1.059337512e-030 -3.531125038e-031 0.4954079986
rhand  -7.920061211e-032 -33.2840004 9.303460121
rfingers  -90 -7.125020027 -90
rthumb  -92.93752616 -24.25625642 -97.11982154
rfemur  -15.5024004 24.09189987 6.78937006
rtibia  -0 0 50.01380157
rfoot  -0 -30.75250053 -11.40970039
rtoes  5.373923086 19.29304026 -105.8922705
lfemur  -31.89179993 9.401249886 1.998039961
ltibia  -0 0 82.90619659
lfoot  -0 -0.2687569857 -18.29089928
ltoes  -4.250644065 -19.5611806 -102.515957
226
root  -7.395222431 36.32977703 0.5444133376 6.402999878 -38.06300354 -6.906997681
lowerback  14.18659973 -0.7774559855 -1.383909941
upperback  4.200669765 -1.319339991 -0.5987370014
thorax  -3.501399994 -0.6810650229 0.3796750009
lowerneck  -2.952009916 4.198880196 -6.463900089
upperneck  6.618040085 5.704979897 3.716769934
head  2.32565999 2.780390024 2.481270075
lclavicle  0 -9.442270133e-015 7.951389973e-016
lhumerus  -5.321529865 -7.945819855 76.82019806
lradius  2.839838078e-031 -2.098609951e-031 143.5359955
lwrist  -7.062250077e-031 -0 10.49790001
lhand  -1.496451383e-031 -27.76390076 20.11240005
lfingers  90 7.125020027 -90
lthumb  89.89689403 5.08795885 91.16245106
rclavicle  0 -9.442270133e-015 7.951389973e-016
rhumerus  -27.87100029 26.13979912 -83.42579651
rradius  -1.915894901e-031 2.966174433e-031 122.8590012
rwrist  7.062250077e-031 -0 0.8912349939
rhand  -7.920061211e-032 -33.2840004 9.303460121
rfingers  -90 -7.125020027 -90
rthumb  -92.93752616 -24.25625642 -97.11982154
rfemur  -16.04220009 23.42980003 7.01680994
rtibia  -0 0 50.80720139
rfoot  -0 -31.58200073 -10.70189953
rtoes  5.373923086 19.29304026 -105.8922705
lfemur  -30.48040009 10.03999996 1.532780051
ltibia  -0 0 82.1989975
lfoot  -0 -4.283710003 -15.56299973
ltoes  -4.250644065 -19.5611806 -102.515957
227
root  -7.430310888 36.18399853 0.4984466579 6.266998291 -38.63400269 -6.99899292
lowerback  14.13519955 -0.9268789887 -1.501620054
upperback  4.197370052 -1.520259976 -0.3303090036
thorax  -3.463269949 -0.7813959718 0.7593010068
lowerneck  -3.174550056 4.463699818 -6.147029877
upperneck  6.618390083 6.101029873 2.994539976
head  2.371979952 2.964370012 2.200819969
lclavicle  0 -9.442270133e-015 7.951389973e-016
lhumerus  -5.7051301 -7.237720013 77.61090088
lradius  2.835399722e-031 -2.104602683e-031 143.4149933
lwrist  -7.062250077e-031 1.765562519e-031 10.86950016
lhand  -1.496451383e-031 -27.76390076 20.11240005
lfingers  90 7.125020027 -90
lthumb  89.89689403 5.08795885 91.16245106
rclavicle  0 -9.442270133e-015 7.951389973e-016
rhumerus  -28.42889977 27.01709938 -84.32820129
rradius  -1.980145724e-031 2.923673536e-031 124.1090012
rwrist  3.531125038e-031 -0 1.204339981
rhand  -7.920061211e-032 -33.2840004 9.303460121
rfingers  -90 -7.125020027 -90
rthumb  -92.93752616 -24.25625642 -97.11982154
rfemur  -16.47229958 22.77799988 7.041669846
rtibia  -0 0 51.46780014
rfoot  -0 -32.08890152 -10.78030014
rtoes  5.373923086 19.29304026 -105.8922705
lfemur  -29.13739967 10.57590008 0.8587909937
ltibia  -0 0 81.57730103
lfoot  -0 -8.939599991 -12.15439987
ltoes  -4.250644065 -19.5611806 -102.515957
228
root  -7.46417759 36.07311099 0.4640377882 5.960998535 -39.05799866 -6.79800415
lowerback  13.9861002 -0.9935089946 -1.768740058
upperback  4.214369774 -1.635710001 -0.1765989959
thorax  -3.349770069 -0.8401319981 1.085890055
lowerneck  -3.318840027 4.650380135 -5.636419773
upperneck  6.581850052 6.374820232 2.295429945
head  2.406749964 3.092550039 1.892310023
lclavicle  0 -9.442270133e-015 7.951389973e-016
lhumerus  -5.952060223 -6.922029972 78.50460052
lradius  2.833010774e-031 -2.107817353e-031 143.3500061
lwrist  -7.062250077e-031 -3.531125038e-031 10.97130013
lhand  -1.496451383e-031 -27.76390076 20.11240005
lfingers  90 7.125020027 -90
lthumb  89.89689403 5.08795885 91.16245106
rclavicle  0 -9.442270133e-015 7.951389973e-016
rhumerus  -28.93510056 27.57480049 -85.31690216
rradius  -2.039280236e-031 2.882738309e-031 125.276001
rwrist  3.531125038e-031 -0 1.558069944
rhand  -7.920061211e-032 -33.2840004 9.303460121
rfingers  -90 -7.125020027 -90
rthumb  -92.93752616 -24.25625642 -97.11982154
rfemur  -16.63610077 22.28019905 6.857429981
rtibia  -0 0 51.95949936
rfoot  -0 -32.78770065 -10.48939991
rtoes  5.373923086 19.29304026 -105.8922705
lfemur  -27.90579987 10.83329964 0.0228403993
ltibia  -0 0 81.12930298
lfoot  -0 -13.22869968 -9.234800339
ltoes  -4.250644065 -19.5611806 -102.515957
